<svg xmlns="http://www.w3.org/2000/svg" viewBox="0 0 900 1100" role="img" aria-labelledby="title desc">
  <title id="title">Parfum floral</title>
  <desc id="desc">Flacon floral rose et ivoire.</desc>
  <defs>
    <linearGradient id="bg" x1="0" y1="0" x2="1" y2="1">
      <stop offset="0" stop-color="#fff8f2"/>
      <stop offset=".5" stop-color="#e6b7a8"/>
      <stop offset="1" stop-color="#6e3c34"/>
    </linearGradient>
    <linearGradient id="glass" x1="0" y1="0" x2="1" y2="1">
      <stop offset="0" stop-color="#ffffff" stop-opacity=".85"/>
      <stop offset=".48" stop-color="#f6d0c2" stop-opacity=".5"/>
      <stop offset="1" stop-color="#2d1b1c" stop-opacity=".24"/>
    </linearGradient>
    <filter id="shadow" x="-30%" y="-20%" width="160%" height="150%">
      <feDropShadow dx="0" dy="42" stdDeviation="34" flood-color="#4f2522" flood-opacity=".28"/>
    </filter>
  </defs>
  <rect width="900" height="1100" fill="url(#bg)"/>
  <circle cx="235" cy="260" r="180" fill="#ffffff" opacity=".23"/>
  <circle cx="710" cy="780" r="230" fill="#f4d9cd" opacity=".18"/>
  <g filter="url(#shadow)">
    <rect x="230" y="306" width="440" height="560" rx="150" fill="url(#glass)" stroke="#fff7ef" stroke-opacity=".55" stroke-width="5"/>
    <rect x="334" y="438" width="232" height="270" rx="72" fill="#d98575" opacity=".78"/>
    <rect x="368" y="170" width="164" height="136" rx="48" fill="#f8ead7"/>
    <rect x="323" y="120" width="254" height="70" rx="22" fill="#fffaf3"/>
    <path d="M388 546c62-76 126-76 126 0-28 35-87 35-126 0z" fill="#fff8f2" opacity=".88"/>
    <path d="M452 512c-9 57 0 91 0 91" stroke="#7a423b" stroke-width="12" stroke-linecap="round" opacity=".5"/>
  </g>
</svg>
