<svg xmlns="http://www.w3.org/2000/svg" viewBox="0 0 1200 900" role="img" aria-labelledby="title desc">
  <title id="title">Coffret parfum</title>
  <desc id="desc">Coffret cadeau avec parfums et ruban dore.</desc>
  <defs>
    <linearGradient id="bg" x1="0" y1="0" x2="1" y2="1">
      <stop offset="0" stop-color="#fffaf1"/>
      <stop offset=".55" stop-color="#d7b56d"/>
      <stop offset="1" stop-color="#17231f"/>
    </linearGradient>
    <filter id="shadow" x="-30%" y="-30%" width="160%" height="160%">
      <feDropShadow dx="0" dy="36" stdDeviation="30" flood-color="#0b0b0f" flood-opacity=".34"/>
    </filter>
  </defs>
  <rect width="1200" height="900" fill="url(#bg)"/>
  <circle cx="890" cy="220" r="210" fill="#fff9ea" opacity=".22"/>
  <g filter="url(#shadow)">
    <rect x="210" y="365" width="780" height="340" rx="54" fill="#fff8ea" opacity=".88"/>
    <rect x="210" y="465" width="780" height="70" fill="#17231f" opacity=".88"/>
    <rect x="566" y="365" width="74" height="340" fill="#b97842" opacity=".9"/>
    <path d="M603 364c-76-136-205-113-205-27 0 62 89 81 205 27zm0 0c76-136 205-113 205-27 0 62-89 81-205 27z" fill="#f4c66e"/>
    <rect x="466" y="210" width="96" height="168" rx="24" fill="#24352e"/>
    <rect x="650" y="218" width="84" height="160" rx="22" fill="#8a5634"/>
    <rect x="480" y="170" width="68" height="48" rx="12" fill="#fff4d9"/>
    <rect x="658" y="182" width="68" height="44" rx="12" fill="#fff4d9"/>
  </g>
</svg>
